<?xml version="1.0" standalone="no"?><!DOCTYPE svg PUBLIC "-//W3C//DTD SVG 1.1//EN" "http://www.w3.org/Graphics/SVG/1.1/DTD/svg11.dtd"><svg t="1723018814633" class="icon" viewBox="0 0 1165 1024" version="1.1" xmlns="http://www.w3.org/2000/svg" p-id="9254" xmlns:xlink="http://www.w3.org/1999/xlink" width="72.8125" height="64"><path d="M383.615479 391.503595l191.497355-110.560147c4.792179-2.76776 10.699369-2.76776 15.491548 0l191.501309 110.560147a15.499456 15.499456 0 0 1 7.745774 13.415728v221.120294a15.515271 15.515271 0 0 1-7.745774 13.419681l-191.501309 110.560147c-4.792179 2.76776-10.699369 2.76776-15.491548 0l-191.497355-110.560147a15.499456 15.499456 0 0 1-7.745774-13.419681v-221.120294a15.507363 15.507363 0 0 1 7.745774-13.415728" fill="#8080F2" p-id="9255"></path><path d="M1080.754894 492.218424L851.952089 94.1671c-8.311188-14.392352-23.664347-25.008688-40.282768-25.008687H354.055803c-16.622375 0-31.979489 10.616336-40.290676 25.008687l-228.802805 397.173549c-8.311188 14.396306-8.311188 32.564672 0 46.960978l228.802805 394.789321c8.311188 14.392352 23.668301 21.750639 40.290676 21.750639H811.665367c16.618421 0 31.975535-7.136867 40.282768-21.533172l228.802805-395.433814c8.319096-14.388398 8.319096-31.263825 0.003954-45.656177m-189.461074 191.410369c0 5.851835-3.522963 11.264783-8.595872 14.194654l-291.44512 168.149323a16.582836 16.582836 0 0 1-16.487941 0l-291.670494-168.149323c-5.068955-2.929872-8.615641-8.338865-8.615642-14.194654V347.326193c0-5.855789 3.495285-11.264783 8.568194-14.194655l291.433258-168.149323a16.54725 16.54725 0 0 1 16.480034 0l291.690264 168.149323c5.072909 2.929872 8.643319 8.338865 8.643319 14.194655v336.3026z" fill="#4B32C3" p-id="9256"></path></svg>