<?xml version="1.0" standalone="no"?><!DOCTYPE svg PUBLIC "-//W3C//DTD SVG 1.1//EN"
        "http://www.w3.org/Graphics/SVG/1.1/DTD/svg11.dtd">
<svg t="1722788278147" class="icon" viewBox="0 0 1024 1024" version="1.1" xmlns="http://www.w3.org/2000/svg" p-id="4552"
     width="64" height="64">
    <path d="M381.51054222 552.38959408H168.99913955A93.20675555 93.20675555 0 0 0 77.03514075 645.59634963v212.51140267a93.20675555 93.20675555 0 0 0 93.20675555 93.20675555h211.26864592a93.20675555 93.20675555 0 0 0 93.20675556-93.20675555v-212.51140267a93.20675555 93.20675555 0 0 0-93.20675556-93.20675555z m31.06891853 305.71815822a31.06891852 31.06891852 0 0 1-31.06891853 31.06891852H168.99913955a31.06891852 31.06891852 0 0 1-31.06891852-31.06891852v-212.51140267a31.06891852 31.06891852 0 0 1 31.06891852-31.06891852H381.51054222a31.06891852 31.06891852 0 0 1 31.06891853 31.06891852zM853.13672533 552.38959408h-212.51140266a93.20675555 93.20675555 0 0 0-93.20675556 93.20675555v212.51140267a93.20675555 93.20675555 0 0 0 93.20675556 93.20675555h212.51140266a93.20675555 93.20675555 0 0 0 93.20675556-93.20675555v-212.51140267a93.20675555 93.20675555 0 0 0-93.20675556-93.20675555z m31.06891852 305.71815822a31.06891852 31.06891852 0 0 1-31.06891852 31.06891852h-212.51140266a31.06891852 31.06891852 0 0 1-31.06891852-31.06891852v-212.51140267a31.06891852 31.06891852 0 0 1 31.06891852-31.06891852h212.51140266a31.06891852 31.06891852 0 0 1 31.06891852 31.06891852zM381.51054222 80.76341097H168.99913955A93.20675555 93.20675555 0 0 0 77.03514075 173.97016652V387.72432592a93.20675555 93.20675555 0 0 0 93.20675555 93.20675556h211.26864592A93.20675555 93.20675555 0 0 0 474.71729778 387.72432592V173.97016652a93.20675555 93.20675555 0 0 0-93.20675556-93.20675555zM412.57946075 387.72432592a31.06891852 31.06891852 0 0 1-31.06891853 31.06891853H168.99913955A31.06891852 31.06891852 0 0 1 139.17297778 387.72432592V173.97016652a31.06891852 31.06891852 0 0 1 31.06891852-31.06891852h211.26864592a31.06891852 31.06891852 0 0 1 31.06891853 31.06891852zM674.80113303 460.42559525a93.20675555 93.20675555 0 0 0 131.73221452 0l114.33362015-114.33362014a92.58537718 92.58537718 0 0 0 0-131.73221452l-114.33362015-114.33362014a92.58537718 92.58537718 0 0 0-131.73221452 0l-114.33362014 114.33362014a92.58537718 92.58537718 0 0 0 0 131.73221452z m-70.83713421-201.94797036l114.95499851-114.95499852a31.06891852 31.06891852 0 0 1 21.74824297-8.69929719 29.82616178 29.82616178 0 0 1 21.74824295 8.69929719l114.95499853 114.95499852a31.06891852 31.06891852 0 0 1 0 43.49648593L760.55134815 416.30773097a31.06891852 31.06891852 0 0 1-43.49648593 0l-113.0908634-114.33362015a31.06891852 31.06891852 0 0 1 0-43.49648593z"
          fill="#fff" p-id="4553"></path>
</svg>
