<svg version="1.1" xmlns="http://www.w3.org/2000/svg" width="512" height="512" viewBox="0 0 512 512"><g><path fill="#ffc843" d="M256,329l63,36v128H193V365L256,329z M319,147V19H193v128l63,36L319,147z"/><path fill="#ff350f" d="M256,183l63-36v73L256,183z M193,292v73l63-36L193,292z"/><path fill="#ff4338" d="M319,220v-73l110-64l63,109l-111,64L319,220z M130,256L19,320l63,109l111-64v-73L130,256z"/><path fill="#002f32" d="M319,220l62,36l-62,36V220z M193,220l-63,36l63,36V220z"/><path fill="#00b3e3" d="M193,220l-63,36L19,192L83,83l110,64V220z M319,292v73l110,64l63-109l-111-64L319,292z"/><path fill="#008c3c" d="M319,292v73l-63-36L319,292z M256,183l-63-36v73L256,183z"/><polygon fill="#00250D" points="256,183 193,220 193,292 256,329 319,292 319,220"/></g></svg>